# xmcd CD database file
#
# Track frame offsets:
#	150
#	15326
#	33318
#	50967
#	66914
#	83259
#	99821
#	116732
#	131395
#	149479
#
# Disc length: 2212 seconds
#
# Revision: 0
# Processed by: cddbd v1.5.2PL0 Copyright (c) Steve Scherf et al.
# Submitted via: CDex 1.70beta2
#
DISCID=7c08a20a
DTITLE=John Kay - All In Good Time
DYEAR=1978
DGENRE=Blues
TTITLE0=Give Me Some News I Can Use
TTITLE1=The Best Is Barely Good Enough
TTITLE2=That's When I Think Of You
TTITLE3=Ain't Nobody Home
TTITLE4=Ain't Nothin' Like It Used To Be
TTITLE5=Business Is Business
TTITLE6=Show Me How You'd Like It Done
TTITLE7=Down In New Orleans
TTITLE8=Say You Will
TTITLE9=Hey, I'm Alright
EXTD=YEAR: 1978
EXTT0=
EXTT1=
EXTT2=
EXTT3=
EXTT4=
EXTT5=
EXTT6=
EXTT7=
EXTT8=
EXTT9=
PLAYORDER=
